<svg width="477" height="306" viewBox="0 0 477 306" fill="none" xmlns="http://www.w3.org/2000/svg">
<path d="M382.187 296.755C379.947 298.185 377.897 300.215 375.447 300.925C362.657 304.635 355.407 303.755 356.667 287.645C360.117 243.665 357.737 199.455 359.087 155.355C360.037 124.245 359.347 93.1945 357.677 62.1245C357.057 50.6345 351.877 44.5145 342.027 40.0045C330.747 34.8545 319.947 28.6145 308.997 22.7545C306.987 21.6845 304.347 20.5846 304.987 17.6146C305.517 15.1646 307.967 15.0446 310.007 14.7646C355.557 8.51455 401.307 5.21454 447.307 5.81454C448.487 5.83454 449.687 5.87454 450.857 6.03454C453.527 6.38454 456.627 6.67455 457.227 9.82455C457.827 12.9346 455.087 14.4846 452.777 15.8046C438.367 24.0046 423.997 32.2746 409.457 40.2446C400.627 45.0846 396.347 51.5845 396.207 62.2545C395.677 102.785 395.497 143.335 389.407 183.605C387.647 195.225 388.247 207.275 388.577 219.105C389.217 242.045 385.937 264.555 382.357 287.075C381.987 289.375 381.107 291.705 382.327 294.025C382.277 294.935 382.227 295.845 382.187 296.755Z" fill="#E60261"/>
<path d="M448.707 291.605C445.117 286.055 439.157 282.955 434.847 278.125C430.517 273.285 429.867 268.925 435.737 264.835C437.427 263.655 438.947 262.255 440.547 260.955C450.487 252.835 464.317 253.065 473.827 261.385C477.947 264.985 476.227 268.045 473.277 271.105C466.767 277.875 460.237 284.625 453.717 291.385C452.047 291.455 450.377 291.535 448.707 291.605Z" fill="#E60261"/>
<path d="M157.087 294.375C156.977 297.795 157.497 300.415 154.737 301.645C152.247 302.755 150.837 300.655 149.517 299.255C144.657 294.085 140.037 288.695 135.207 283.505C119.317 266.405 103.307 249.415 87.5073 232.235C82.3873 226.675 78.3373 226.745 72.7373 232.125C52.3073 251.765 31.9071 271.465 10.0571 289.565C7.66713 291.545 5.10727 295.535 1.94727 293.585C-1.81273 291.275 0.837248 287.125 1.92725 283.925C12.9572 251.425 21.1073 218.085 30.7573 185.195C41.0773 150.005 48.9972 114.215 59.0872 79.0146C65.7472 55.7946 68.2371 32.0346 72.3071 8.46458C72.8871 5.12458 72.2971 0.204562 76.8071 0.00456151C80.5071 -0.165438 81.0371 4.45457 81.8171 7.45457C90.5271 40.9446 102.047 73.5946 111.967 106.725C123.297 144.565 126.877 184.045 138.767 221.545C145.407 242.475 148.107 264.255 154.847 285.075C155.937 288.425 156.517 291.945 157.087 294.375ZM81.0571 125.025C79.0971 128.435 77.2471 130.775 76.3071 133.445C74.2571 139.275 72.9872 145.385 70.8472 151.175C63.2372 171.715 66.5071 170.125 86.5471 167.995C87.1371 167.935 87.7271 167.885 88.3071 167.805C91.5471 167.365 93.2873 165.135 92.6973 162.265C90.1373 149.785 88.7171 136.895 81.0571 125.025Z" fill="#E60261"/>
<path d="M186.757 276.935C187.537 256.255 185.247 238.275 182.657 220.465C179.217 196.845 178.997 173.075 180.617 149.585C183.637 105.985 179.727 62.6245 179.207 19.1545C179.157 15.1845 177.307 10.3645 181.967 7.91455C186.177 5.69455 189.067 9.68454 192.237 11.5345C208.367 20.9545 223.077 32.4645 238.547 42.8545C260.627 57.6845 282.837 72.3145 305.217 86.6845C315.847 93.5145 316.367 96.4745 307.747 105.375C288.627 125.105 269.767 145.085 250.717 164.885C247.447 168.285 243.877 171.425 240.237 174.435C222.297 189.245 219.827 211.065 214.537 231.485C208.907 253.215 204.367 275.225 197.477 296.615C197.027 298.005 196.227 299.295 195.457 300.555C194.297 302.445 193.947 305.615 190.887 305.095C188.437 304.685 188.617 301.875 188.077 299.985C185.677 291.565 187.027 282.935 186.757 276.935ZM225.377 79.9546C221.317 79.8246 220.697 82.3246 220.617 84.6746C220.217 96.5246 220.297 108.375 221.587 120.175C222.027 124.205 223.697 126.485 227.947 123.205C236.847 116.345 245.837 109.605 254.727 102.735C256.947 101.025 259.107 98.6146 256.117 96.1746C246.827 88.5446 234.587 86.4846 225.377 79.9546Z" fill="#E60261"/>
</svg>
